<?xml version="1.0" encoding="UTF-8"?>
<svg version="1.1" xmlns="http://www.w3.org/2000/svg" width="232" height="233">
<path d="M0 0 C76.56 0 153.12 0 232 0 C232 76.89 232 153.78 232 233 C155.44 233 78.88 233 0 233 C0 156.11 0 79.22 0 0 Z " fill="#000000" transform="translate(0,0)"/>
<path d="M0 0 C3.50207052 2.84180082 6.77923259 5.84462889 10 9 C10.62777344 9.59167969 11.25554687 10.18335937 11.90234375 10.79296875 C20.10836463 19.22228271 25.34430483 31.67488673 28 43 C28.17200928 43.60150879 28.34401855 44.20301758 28.52124023 44.82275391 C29.04984848 47.22669491 29.12949681 49.39084405 29.1328125 51.8515625 C29.13410156 52.78613281 29.13539063 53.72070312 29.13671875 54.68359375 C29.13285156 55.65425781 29.12898437 56.62492187 29.125 57.625 C29.12886719 58.57246094 29.13273438 59.51992187 29.13671875 60.49609375 C29.1291455 66.03213596 28.82387628 71.37720679 28.02514648 76.85839844 C27.99529855 79.40039953 28.57418062 80.50711853 29.9375 82.625 C32.39654282 86.64888826 32.77473623 89.46664247 32 94 C29.40958358 103.59085884 26.92591043 111.61099609 18.26171875 117.1015625 C15.18255325 118.32471978 12.54991534 118.19099831 9.25 118.125 C8.07953125 118.10695312 6.9090625 118.08890625 5.703125 118.0703125 C4.81109375 118.04710937 3.9190625 118.02390625 3 118 C2.67 117.01 2.34 116.02 2 115 C1.34 115.66 0.68 116.32 0 117 C-5.26537803 117.5601466 -5.26537803 117.5601466 -7.68994141 115.71142578 C-9 114 -9 114 -9.0234375 110.3046875 C-8.03899475 103.71772506 -5.64892164 97.47820066 -3.38964844 91.24121094 C-2.62081499 89.11341773 -1.87204362 86.97927785 -1.125 84.84375 C-0.63919375 83.48135202 -0.15225484 82.11935728 0.3359375 80.7578125 C0.77470215 79.5320752 1.2134668 78.30633789 1.66552734 77.04345703 C2.86925834 74.29817518 3.59903485 72.73809837 6 71 C11.15121951 70.35609756 11.15121951 70.35609756 13.8125 72.375 C15 74 15 74 16 76 C20.91025362 58.55106304 18.3175278 41.42580994 9.8125 25.625 C3.34717337 15.35572041 -5.09169992 8.21220422 -16 3 C-16.90363281 2.56558594 -17.80726563 2.13117188 -18.73828125 1.68359375 C-32.21880866 -3.55173963 -51.78119134 -3.55173963 -65.26171875 1.68359375 C-66.16535156 2.11800781 -67.06898437 2.55242187 -68 3 C-69.01707031 3.48597656 -70.03414062 3.97195312 -71.08203125 4.47265625 C-82.98321342 10.80498337 -91.2125985 19.88790508 -97 32 C-97.65162109 33.35544922 -97.65162109 33.35544922 -98.31640625 34.73828125 C-102.58391523 45.72674513 -102.33469688 59.41842021 -101 71 C-100.34 71.99 -99.68 72.98 -99 74 C-98.649375 73.505 -98.29875 73.01 -97.9375 72.5 C-94.94927177 70.18653299 -92.65496159 70.5431298 -89 71 C-85.98126565 74.08615025 -84.96460319 77.62797954 -83.6875 81.6875 C-82.32251783 85.98759452 -80.92696202 90.25881145 -79.34375 94.484375 C-79.06829346 95.22727783 -78.79283691 95.97018066 -78.5090332 96.7355957 C-77.97574808 98.16492663 -77.43313465 99.5908246 -76.87963867 101.01245117 C-75.092697 105.85886247 -74.49216845 109.82681492 -75 115 C-78.45662331 117.30441554 -79.94857881 117.25860135 -84 117 C-84.66 116.67 -85.32 116.34 -86 116 C-86 116.66 -86 117.32 -86 118 C-87.32 118 -88.64 118 -90 118 C-84.53188123 127.50977178 -75.32810703 134.71580029 -64.70703125 137.62890625 C-63.86205078 137.81259766 -63.86205078 137.81259766 -63 138 C-63 137.34 -63 136.68 -63 136 C-56.86347988 132.93173994 -48.71178834 135.3088602 -42.4453125 136.953125 C-39.53549485 138.19886163 -37.9770929 139.53651523 -36 142 C-35.3004267 146.89701312 -35.25080027 148.83994881 -37.9375 153 C-42.97406101 156.2891827 -47.14862116 155.54018002 -52.88671875 154.453125 C-58.12640787 153.19392067 -61.4431644 152.22808223 -65 148 C-65.28875 147.32324219 -65.5775 146.64648438 -65.875 145.94921875 C-67.57602062 143.00196427 -69.96649021 142.26128711 -73 140.8125 C-81.78445483 136.27952718 -88.55011885 130.16492776 -94.74609375 122.5078125 C-97.83143074 118.7977188 -100.670706 117.08156613 -105.0625 115.16015625 C-111.8456015 111.09850072 -114.18087635 100.23088494 -116 93 C-116.4895607 87.59354707 -115.26715908 84.26151184 -112 80 C-111.77499166 76.84988318 -111.71990997 74.1017876 -112.50073242 71.03027344 C-116.12527117 56.29107333 -112.06005723 38.10445711 -105 25 C-104.58105469 24.20464844 -104.16210938 23.40929687 -103.73046875 22.58984375 C-94.14094065 5.49776475 -79.2341796 -5.16607763 -60.75 -11.03125 C-40.45036096 -16.40468386 -17.04954531 -12.41499016 0 0 Z " fill="#F8F8F8" transform="translate(156,62)"/>
</svg>
