<?xml version="1.0" encoding="UTF-8"?>
<svg version="1.1" xmlns="http://www.w3.org/2000/svg" width="251" height="253">
<path d="M0 0 C82.83 0 165.66 0 251 0 C251 83.49 251 166.98 251 253 C168.17 253 85.34 253 0 253 C0 169.51 0 86.02 0 0 Z " fill="#000000" transform="translate(0,0)"/>
<path d="M0 0 C1.6652832 1.1809082 1.6652832 1.1809082 3 3 C3.34057617 5.54370117 3.34057617 5.54370117 3.29296875 8.54296875 C3.28330078 9.61611328 3.27363281 10.68925781 3.26367188 11.79492188 C3.23853516 12.91447266 3.21339844 14.03402344 3.1875 15.1875 C3.17396484 16.31865234 3.16042969 17.44980469 3.14648438 18.61523438 C3.11109958 21.41063317 3.06172948 24.20507892 3 27 C3.66 27 4.32 27 5 27 C5.20496094 26.44828125 5.40992188 25.8965625 5.62109375 25.328125 C13.16689141 12.58791138 32.19652717 5.45496344 45.6875 1.5 C59.98167734 -1.97442939 75.97226528 -1.20469568 90 3 C90.93585938 3.2784375 91.87171875 3.556875 92.8359375 3.84375 C115.43665067 11.35573489 132.34126528 26.96974221 143.01757812 47.95996094 C148.46880642 59.27965867 153.00744703 73.29306726 151 86 C148.875 89.25 148.875 89.25 146 91 C142.8125 91 142.8125 91 140 90 C137.58700086 86.38050129 137.48838277 83.32716014 137.125 79.125 C135.16213948 60.38156749 127.55355732 43.12936535 113.1796875 30.52734375 C95.58289536 16.76692797 76.98016477 12.21894394 55 14 C47.52163031 15.10115825 40.69786292 17.53906414 34 21 C32.59621094 21.70576172 32.59621094 21.70576172 31.1640625 22.42578125 C22.28395911 27.20825338 14.63760483 33.54359276 9 42 C9.9787207 42.01458252 10.95744141 42.02916504 11.96582031 42.04418945 C15.60404626 42.10225106 19.24165836 42.1794826 22.87939453 42.26245117 C24.45253522 42.29566372 26.02579401 42.32370717 27.59912109 42.34643555 C29.86346672 42.38005028 32.12673365 42.43236624 34.390625 42.48828125 C35.09181458 42.49467117 35.79300415 42.5010611 36.51544189 42.50764465 C39.5602398 42.59890873 41.74532893 42.86339493 44.44824219 44.31323242 C46 46 46 46 46.4375 49.5 C46 53 46 53 44.77110291 54.6934967 C42.46603992 56.3938905 41.07546974 56.38597022 38.22485352 56.40405273 C37.25697403 56.41673691 36.28909454 56.42942108 35.29188538 56.44248962 C34.24810226 56.43955399 33.20431915 56.43661835 32.12890625 56.43359375 C30.51809425 56.44145653 30.51809425 56.44145653 28.8747406 56.44947815 C26.60261907 56.45590447 24.3304643 56.45455351 22.05834961 56.44604492 C18.579313 56.4375411 15.10192092 56.46627971 11.62304688 56.49804688 C9.41666716 56.49965907 7.21028453 56.499081 5.00390625 56.49609375 C3.96214737 56.50732773 2.92038849 56.51856171 1.84706116 56.53013611 C-2.11456272 56.49186362 -5.10006892 56.4607667 -8.65454102 54.64086914 C-10.85517039 50.32147012 -10.56929376 46.02723684 -10.53125 41.25 C-10.5350769 40.19973633 -10.53890381 39.14947266 -10.54284668 38.06738281 C-10.54556696 35.84829753 -10.53819777 33.62918026 -10.52148438 31.41015625 C-10.50007745 28.01229405 -10.52128325 24.61654639 -10.546875 21.21875 C-10.54423175 19.06249533 -10.53910682 16.90624198 -10.53125 14.75 C-10.53934692 13.73325195 -10.54744385 12.71650391 -10.55578613 11.66894531 C-10.4626002 4.66422128 -10.4626002 4.66422128 -8.15820312 1.35546875 C-5.22880068 -0.48435505 -3.39454096 -0.50556993 0 0 Z " fill="#F9F9F9" transform="translate(58,40)"/>
<path d="M0 0 C2.37840131 1.64792339 3.7717781 2.96652949 4.40893555 5.85180664 C4.633477 8.1511848 4.76370513 10.44240997 4.875 12.75 C6.31937227 31.29765869 14.56098515 47.09147258 28 60 C44.63122737 73.78641216 63.79105724 78.9049699 85 77 C102.16837792 74.65780866 118.8076943 65.16400722 130 52 C131.01292678 50.3411579 132.01433551 48.67518456 133 47 C131.95545654 47.01571045 130.91091309 47.0314209 129.8347168 47.04760742 C125.96028348 47.10189697 122.08588381 47.1363463 118.21118164 47.16479492 C116.5340408 47.17988384 114.85693943 47.20035748 113.17993164 47.22631836 C110.76959496 47.26269811 108.35977981 47.27972486 105.94921875 47.29296875 C105.19912033 47.30845261 104.44902191 47.32393646 103.67619324 47.33988953 C98.50648394 47.34156179 98.50648394 47.34156179 96.02661133 45.66918945 C94.40901227 43.03910033 94.62416566 41.00667472 95 38 C96.62116668 35.78669325 97.51139703 35.0831411 100.23876953 34.61904907 C101.11130371 34.61666229 101.98383789 34.61427551 102.8828125 34.61181641 C103.87394043 34.60235992 104.86506836 34.59290344 105.88623047 34.5831604 C106.95502441 34.58923309 108.02381836 34.59530579 109.125 34.6015625 C110.22344238 34.59869232 111.32188477 34.59582214 112.45361328 34.59286499 C114.77702347 34.59082264 117.10045078 34.59636437 119.42382812 34.60888672 C122.98606712 34.62493722 126.54717142 34.60904302 130.109375 34.58984375 C132.36458585 34.59182615 134.61979598 34.59566976 136.875 34.6015625 C137.94379395 34.59548981 139.01258789 34.58941711 140.11376953 34.5831604 C141.10489746 34.59261688 142.09602539 34.60207336 143.1171875 34.61181641 C143.98972168 34.61420319 144.86225586 34.61658997 145.76123047 34.61904907 C148 35 148 35 149.77992249 36.22581482 C151.36743566 38.53430942 151.38633913 39.98268613 151.40405273 42.77514648 C151.42307899 44.22696571 151.42307899 44.22696571 151.44248962 45.70811462 C151.43955399 46.75189774 151.43661835 47.79568085 151.43359375 48.87109375 C151.4388356 49.94496841 151.44407745 51.01884308 151.44947815 52.1252594 C151.45590447 54.39738093 151.45455351 56.6695357 151.44604492 58.94165039 C151.4375411 62.420687 151.46627971 65.89807908 151.49804688 69.37695312 C151.49965907 71.58333284 151.499081 73.78971547 151.49609375 75.99609375 C151.50732773 77.03785263 151.51856171 78.07961151 151.53013611 79.15293884 C151.46063284 86.34729184 151.46063284 86.34729184 149.12524414 89.65649414 C146.43224242 91.35891671 145.12814903 91.62562981 142 91 C139.38668558 88.92538988 138.13541485 87.76502112 137.54589844 84.43457031 C137.5668457 83.49194336 137.58779297 82.54931641 137.609375 81.578125 C137.62226563 80.55332031 137.63515625 79.52851563 137.6484375 78.47265625 C137.69871094 76.87744141 137.69871094 76.87744141 137.75 75.25 C137.76804688 74.17105469 137.78609375 73.09210938 137.8046875 71.98046875 C137.85178585 69.31941212 137.917544 66.66015746 138 64 C137.4834082 64.45818115 136.96681641 64.9163623 136.43457031 65.38842773 C123.53966389 76.76039609 110.69711576 84.52028602 94 89 C92.77152344 89.35964844 91.54304688 89.71929687 90.27734375 90.08984375 C85.30805849 91.31234236 80.40833887 91.34291897 75.3125 91.3125 C74.33933838 91.30758545 73.36617676 91.3026709 72.36352539 91.29760742 C64.90576711 91.17659029 58.11289675 90.34564152 51 88 C49.96230469 87.67128906 48.92460938 87.34257812 47.85546875 87.00390625 C24.49101636 78.83906134 7.91870012 62.5765352 -2.8125 40.5 C-6.85248583 30.86295048 -9.34834044 21.77773492 -9.4375 11.3125 C-9.4475708 10.53382568 -9.4576416 9.75515137 -9.46801758 8.95288086 C-9.38434291 3.56981071 -9.38434291 3.56981071 -7.65625 1.0078125 C-4.98534846 -0.61740589 -3.04676039 -0.43525148 0 0 Z " fill="#FAFAFA" transform="translate(49,118)"/>
</svg>
