<?xml version="1.0" encoding="UTF-8"?>
<svg version="1.1" xmlns="http://www.w3.org/2000/svg" width="264" height="242">
<path d="M0 0 C87.12 0 174.24 0 264 0 C264 79.86 264 159.72 264 242 C176.88 242 89.76 242 0 242 C0 162.14 0 82.28 0 0 Z " fill="#000000" transform="translate(0,0)"/>
<path d="M0 0 C1.12742615 -0.00281982 2.25485229 -0.00563965 3.41644287 -0.00854492 C4.66427551 -0.00652069 5.91210815 -0.00449646 7.19775391 -0.00241089 C8.50327209 -0.00416321 9.80879028 -0.00591553 11.15386963 -0.00772095 C14.7446815 -0.01229497 18.33546476 -0.01050585 21.92627716 -0.00734186 C25.67611267 -0.0048181 29.42594565 -0.00715584 33.17578125 -0.00872803 C39.47412559 -0.01054968 45.77245822 -0.00814354 52.07080078 -0.00338745 C59.36270524 0.00205516 66.65458174 0.0002925 73.94648552 -0.00521386 C80.19615354 -0.00974512 86.44581312 -0.01039547 92.69548225 -0.00777519 C96.43295882 -0.00621249 100.17042222 -0.00601846 103.90789795 -0.00931168 C108.07224191 -0.01272441 112.23653732 -0.00800044 116.40087891 -0.00241089 C117.64871155 -0.00443512 118.89654419 -0.00645935 120.18218994 -0.00854492 C121.87332916 -0.00431519 121.87332916 -0.00431519 123.59863281 0 C124.58457428 0.00037703 125.57051575 0.00075405 126.58633423 0.0011425 C128.79931641 0.12698364 128.79931641 0.12698364 129.79931641 1.12698364 C129.64038935 9.47676652 128.51949916 17.7366447 127.20166016 25.97073364 C126.67286444 29.58865786 126.67286444 29.58865786 126.79931641 35.12698364 C137.02931641 35.45698364 147.25931641 35.78698364 157.79931641 36.12698364 C159.81697763 40.43767567 161.81659012 44.75030352 163.78076172 49.08474731 C164.45101377 50.55200809 165.12984263 52.01538621 165.81787109 53.47439575 C170.27614243 62.94659761 172.96434453 70.46352202 171.79931641 81.12698364 C171.67717773 82.40243042 171.55503906 83.6778772 171.42919922 84.99197388 C171.07969533 88.39938038 170.6565389 91.7929178 170.20019531 95.18753052 C169.92015371 97.2831339 169.6578941 99.38048504 169.39697266 101.47854614 C169.22223057 102.82243167 169.04648768 104.16618754 168.86962891 105.50979614 C168.71252441 106.71007446 168.55541992 107.91035278 168.39355469 109.14700317 C167.79931641 112.12698364 167.79931641 112.12698364 165.79931641 115.12698364 C163.0107875 115.34806152 160.4527846 115.408059 157.67431641 115.31448364 C156.54316406 115.29418091 156.54316406 115.29418091 155.38916016 115.27346802 C153.52557513 115.23808349 151.66235663 115.18427531 149.79931641 115.12698364 C149.67685547 116.19948364 149.55439453 117.27198364 149.42822266 118.37698364 C148.18637699 125.78177769 143.74212991 130.90053523 138.02978516 135.58401489 C131.31188162 140.23125114 123.93804792 142.54241521 115.79931641 141.12698364 C108.68888078 138.9391573 104.67073183 135.54242115 100.85791016 129.21292114 C98.2082605 123.99184027 98.79931641 121.85631213 98.79931641 115.12698364 C80.97931641 115.12698364 63.15931641 115.12698364 44.79931641 115.12698364 C44.13931641 117.76698364 43.47931641 120.40698364 42.79931641 123.12698364 C38.82052309 131.60637923 32.19601601 136.41222507 23.73681641 140.00198364 C17.4891828 142.08040433 11.79486834 141.73203722 5.74853516 139.15432739 C-0.79393902 135.7060895 -4.08201941 131.5666093 -6.55615234 124.60745239 C-7.42115006 121.27852178 -7.49781044 118.54394242 -7.20068359 115.12698364 C-8.55613281 115.17919067 -8.55613281 115.17919067 -9.93896484 115.23245239 C-11.11845703 115.25952271 -12.29794922 115.28659302 -13.51318359 115.31448364 C-14.68494141 115.34928833 -15.85669922 115.38409302 -17.06396484 115.41995239 C-20.20068359 115.12698364 -20.20068359 115.12698364 -22.09912109 113.91995239 C-26.20576733 107.23573033 -22.48242386 95.32532853 -21.20068359 88.12698364 C-22.33505859 88.14760864 -23.46943359 88.16823364 -24.63818359 88.18948364 C-28.20068359 88.12698364 -28.20068359 88.12698364 -29.20068359 87.12698364 C-29.38818359 84.18948364 -29.38818359 84.18948364 -29.20068359 81.12698364 C-26.55369844 78.47999849 -25.316651 78.86599357 -21.62109375 78.83987427 C-20.45293121 78.82645996 -19.28476868 78.81304565 -18.08120728 78.79922485 C-16.81352509 78.79394775 -15.5458429 78.78867065 -14.23974609 78.78323364 C-12.25783735 78.76089326 -10.27592866 78.73854216 -8.29402733 78.71555328 C-4.80464541 78.67776305 -1.31517131 78.6527945 2.17431641 78.62698364 C6.32826742 78.59620121 10.48210388 78.563175 14.63589478 78.51504517 C17.22449293 78.48590906 19.81320747 78.46555335 22.40194702 78.45474243 C23.57641388 78.44132812 24.75088074 78.42791382 25.9609375 78.41409302 C26.99415131 78.40680176 28.02736511 78.3995105 29.09188843 78.39199829 C31.8781157 78.11927043 33.47937612 77.66854223 35.79931641 76.12698364 C38.17658872 73.22259375 38.17658872 73.22259375 37.54931641 69.50198364 C37.30181641 68.38823364 37.05431641 67.27448364 36.79931641 66.12698364 C34.247801 64.85122594 32.42765238 64.98852572 29.57104492 64.9692688 C28.4797377 64.95900665 27.38843048 64.94874451 26.26405334 64.93817139 C25.08072922 64.93087006 23.89740509 64.92356873 22.67822266 64.91604614 C20.19188787 64.88798421 17.70555983 64.85931979 15.21923828 64.83010864 C11.28426249 64.78877331 7.34941344 64.7519008 3.41430664 64.72561646 C-0.37298818 64.69810182 -4.15970365 64.65223495 -7.94677734 64.60354614 C-9.12807724 64.60029327 -10.30937714 64.59704041 -11.526474 64.59368896 C-13.16816307 64.56883926 -13.16816307 64.56883926 -14.84301758 64.54348755 C-15.80739243 64.5354007 -16.77176727 64.52731384 -17.7653656 64.51898193 C-20.20068359 64.12698364 -20.20068359 64.12698364 -22.04725647 62.7611084 C-23.20068359 61.12698364 -23.20068359 61.12698364 -23.01318359 58.56448364 C-22.20068359 56.12698364 -22.20068359 56.12698364 -20.20068359 54.12698364 C-17.86784363 53.88215637 -17.86784363 53.88215637 -14.91235352 53.88748169 C-13.80748093 53.88375046 -12.70260834 53.88001923 -11.56425476 53.87617493 C-9.76586906 53.88237602 -9.76586906 53.88237602 -7.93115234 53.88870239 C-5.40836051 53.87328212 -2.88557395 53.85697844 -0.36279297 53.83987427 C3.62708823 53.82341051 7.61628788 53.81449157 11.60620117 53.82156372 C15.44836301 53.82417922 19.28934327 53.79608824 23.13134766 53.76370239 C24.32419876 53.77390915 25.51704987 53.78411591 26.74604797 53.79463196 C33.44847956 53.91856026 33.44847956 53.91856026 39.0949707 50.82156372 C41.14231476 48.13001896 41.14231476 48.13001896 40.73681641 44.37698364 C40.42744141 43.30448364 40.11806641 42.23198364 39.79931641 41.12698364 C36.84891513 39.651783 34.19614414 39.97775169 30.90283203 39.95339966 C30.19374191 39.94671265 29.48465179 39.94002563 28.7540741 39.93313599 C27.21262843 39.91907601 25.67116182 39.90718497 24.12968445 39.89718819 C21.69253919 39.88080231 19.25554971 39.85756701 16.81848145 39.83229065 C9.88883187 39.76143788 2.95911956 39.70130299 -3.97070312 39.650177 C-8.20708384 39.61844193 -12.4432844 39.57718353 -16.67951965 39.52998161 C-18.29666413 39.5139317 -19.91385011 39.501624 -21.53105164 39.49307442 C-23.78895441 39.48096334 -26.04643092 39.45683329 -28.30419922 39.42996216 C-29.59056274 39.41965469 -30.87692627 39.40934723 -32.20227051 39.39872742 C-35.20068359 39.12698364 -35.20068359 39.12698364 -37.20068359 37.12698364 C-37.54837175 34.41501599 -37.64810744 32.80668144 -36.12303162 30.48988342 C-33.18876593 28.40955769 -30.69408027 28.75544246 -27.13061523 28.75808716 C-26.05694954 28.75243744 -26.05694954 28.75243744 -24.96159363 28.74667358 C-23.40816113 28.74024018 -21.85468928 28.74057206 -20.30125618 28.7468586 C-17.84228796 28.75595855 -15.38408396 28.74575831 -12.92515564 28.73023987 C-5.93473519 28.69010799 1.05562612 28.68893871 8.04614258 28.69119263 C12.32265483 28.69124371 16.5987551 28.672087 20.8751545 28.64185905 C23.29724199 28.63102152 25.71854721 28.64317126 28.14060974 28.65568542 C29.62703223 28.64678142 31.11344832 28.63670718 32.59985352 28.62527466 C34.54486 28.62552391 34.54486 28.62552391 36.52915955 28.6257782 C39.85489054 28.38041598 39.85489054 28.38041598 42.22193909 26.32240295 C44.49013433 23.16549206 44.2896351 20.90944212 43.79931641 17.12698364 C40.52180581 14.94197658 39.4942159 14.86347129 35.68530273 14.80813599 C34.64445023 14.7882663 33.60359772 14.76839661 32.53120422 14.7479248 C30.84827522 14.73059799 30.84827522 14.73059799 29.13134766 14.71292114 C27.40642342 14.68387192 27.40642342 14.68387192 25.64665222 14.65423584 C21.96844941 14.59438604 18.2902154 14.54803258 14.61181641 14.50198364 C12.12026619 14.46380888 9.62872924 14.42475745 7.13720703 14.38479614 C1.02469446 14.28868002 -5.0878978 14.20364826 -11.20068359 14.12698364 C-11.50537109 6.49417114 -11.50537109 6.49417114 -8.76318359 3.18948364 C-7.91755859 2.50885864 -7.07193359 1.82823364 -6.20068359 1.12698364 C-4.49992585 -0.5737741 -2.32684887 0.00088979 0 0 Z " fill="#FCFCFC" transform="translate(68.20068359375,45.873016357421875)"/>
<path d="M0 0 C4.60899048 1.76514529 6.74559823 4.65818919 9 9 C9.8692245 14.8672654 8.24598173 19.19385285 5 24 C-0.65660231 29.24270458 -4.5235251 30.44857566 -12.109375 30.3203125 C-15.85185862 29.90560486 -17.5945841 28.88649908 -20 26 C-22.86371047 21.27487773 -22.63048065 16.3629774 -22 11 C-17.15854507 1.137777 -10.19523464 -0.79788793 0 0 Z " fill="#040404" transform="translate(94,146)"/>
<path d="M0 0 C3.49029792 1.97277708 6.19844633 4.39689265 8 8 C8.5941389 13.71287408 8.23057886 18.09843208 5 23 C1.25674421 27.33429618 -1.61607486 29.57984822 -7.328125 30.2890625 C-11.67896055 30.53656512 -14.97278668 30.56840623 -18.5 27.8125 C-22.42975861 23.39152156 -23.49263747 19.97394588 -23.3125 13.984375 C-22.37454149 8.02833847 -17.50461229 4.4274224 -13 1 C-9.00469193 -0.99765403 -4.33153639 -0.64943255 0 0 Z " fill="#030303" transform="translate(200,146)"/>
<path d="M0 0 C8.91 0 17.82 0 27 0 C28.11375 2.206875 29.2275 4.41375 30.375 6.6875 C30.72224121 7.37287842 31.06948242 8.05825684 31.42724609 8.7644043 C36 17.86901327 36 17.86901327 36 22 C23.46 22 10.92 22 -2 22 C-2 12 -2 12 0 0 Z " fill="#030303" transform="translate(192,95)"/>
</svg>
