<?xml version="1.0" encoding="UTF-8"?>
<svg version="1.1" xmlns="http://www.w3.org/2000/svg" width="243" height="233">
<path d="M0 0 C80.19 0 160.38 0 243 0 C243 76.89 243 153.78 243 233 C162.81 233 82.62 233 0 233 C0 156.11 0 79.22 0 0 Z " fill="#000000" transform="translate(0,0)"/>
<path d="M0 0 C1.4898336 0.69574299 2.97672266 1.39781859 4.4609375 2.10546875 C11.79541297 5.46884113 19.0047867 8.27143913 26.8359375 10.29296875 C27.46306641 10.46280273 28.09019531 10.63263672 28.73632812 10.80761719 C39.58350635 13.70543823 50.19438374 14.9491929 61.42089844 15.34619141 C62.44086914 15.39952637 63.46083984 15.45286133 64.51171875 15.5078125 C65.8716394 15.55603149 65.8716394 15.55603149 67.2590332 15.60522461 C70.97739897 16.59761081 72.42449546 18.3223791 74.8359375 21.29296875 C75.32741017 24.02557303 75.51282976 26.13456722 75.46704102 28.85864258 C75.47777397 29.97698486 75.47777397 29.97698486 75.48872375 31.11791992 C75.50560583 33.57924062 75.48619237 36.03873599 75.46484375 38.5 C75.46567346 40.22572479 75.46813671 41.95144949 75.47215271 43.6771698 C75.47501163 47.29958823 75.46031785 50.92138884 75.43286133 54.54370117 C75.3990591 59.14181354 75.40470132 63.73880119 75.4235239 68.33696461 C75.43420962 71.90715034 75.42504794 75.47708444 75.41013908 79.04724693 C75.40502197 80.73936904 75.40535864 82.43151822 75.41168404 84.12363625 C75.4445359 98.21241464 73.9174488 111.94945303 67.1484375 124.60546875 C66.80594971 125.26442139 66.46346191 125.92337402 66.1105957 126.60229492 C62.76110418 132.81866631 58.63906837 138.12036627 53.8359375 143.29296875 C53.03800781 144.18242187 52.24007812 145.071875 51.41796875 145.98828125 C37.6046172 160.65843675 11.56816924 180.75711758 -9.19921875 181.66015625 C-13.43368459 181.26799882 -16.79707626 180.20205106 -20.6015625 178.41796875 C-21.62636719 177.95040161 -21.62636719 177.95040161 -22.671875 177.47338867 C-50.66164226 164.36115139 -78.20598831 144.32887047 -89.1640625 114.29296875 C-90.81367616 108.2973543 -91.46191783 102.62623173 -91.45458984 96.42431641 C-91.46130707 95.58901398 -91.46802429 94.75371155 -91.47494507 93.89309692 C-91.4937649 91.16434608 -91.4978394 88.4358427 -91.5 85.70703125 C-91.50643319 83.79893902 -91.51316193 81.89084777 -91.52017212 79.98275757 C-91.53210036 76.00036324 -91.53585695 72.01805544 -91.53466797 68.03564453 C-91.53446367 62.92756168 -91.56189942 57.82002827 -91.59621239 52.71207619 C-91.61840473 48.77962678 -91.62250807 44.847312 -91.62144852 40.91480637 C-91.6238109 39.03049174 -91.63267016 37.14617375 -91.64811325 35.26192093 C-91.66764206 32.63596536 -91.66199031 30.01122778 -91.64990234 27.38525391 C-91.66114136 26.60601562 -91.67238037 25.82677734 -91.68395996 25.02392578 C-91.62235286 19.77504535 -91.62235286 19.77504535 -89.28369141 17.31500244 C-86.75787632 16.09711562 -84.87882297 15.85283443 -82.078125 15.73828125 C-80.57523926 15.65682861 -80.57523926 15.65682861 -79.04199219 15.57373047 C-77.43179199 15.49662842 -77.43179199 15.49662842 -75.7890625 15.41796875 C-54.80736508 14.03799299 -33.51895008 9.33738382 -15 -1.015625 C-9.60299566 -3.7409913 -5.31790121 -2.29487704 0 0 Z " fill="#020202" transform="translate(132.1640625,35.70703125)"/>
<path d="M0 0 C1.4898336 0.69574299 2.97672266 1.39781859 4.4609375 2.10546875 C11.79541297 5.46884113 19.0047867 8.27143913 26.8359375 10.29296875 C27.46306641 10.46280273 28.09019531 10.63263672 28.73632812 10.80761719 C39.58350635 13.70543823 50.19438374 14.9491929 61.42089844 15.34619141 C62.44086914 15.39952637 63.46083984 15.45286133 64.51171875 15.5078125 C65.8716394 15.55603149 65.8716394 15.55603149 67.2590332 15.60522461 C70.97739897 16.59761081 72.42449546 18.3223791 74.8359375 21.29296875 C75.32741017 24.02557303 75.51282976 26.13456722 75.46704102 28.85864258 C75.47777397 29.97698486 75.47777397 29.97698486 75.48872375 31.11791992 C75.50560583 33.57924062 75.48619237 36.03873599 75.46484375 38.5 C75.46567346 40.22572479 75.46813671 41.95144949 75.47215271 43.6771698 C75.47501163 47.29958823 75.46031785 50.92138884 75.43286133 54.54370117 C75.3990591 59.14181354 75.40470132 63.73880119 75.4235239 68.33696461 C75.43420962 71.90715034 75.42504794 75.47708444 75.41013908 79.04724693 C75.40502197 80.73936904 75.40535864 82.43151822 75.41168404 84.12363625 C75.4445359 98.21241464 73.9174488 111.94945303 67.1484375 124.60546875 C66.80594971 125.26442139 66.46346191 125.92337402 66.1105957 126.60229492 C62.76110418 132.81866631 58.63906837 138.12036627 53.8359375 143.29296875 C53.03800781 144.18242187 52.24007812 145.071875 51.41796875 145.98828125 C37.6046172 160.65843675 11.56816924 180.75711758 -9.19921875 181.66015625 C-13.43368459 181.26799882 -16.79707626 180.20205106 -20.6015625 178.41796875 C-21.62636719 177.95040161 -21.62636719 177.95040161 -22.671875 177.47338867 C-50.66164226 164.36115139 -78.20598831 144.32887047 -89.1640625 114.29296875 C-90.81367616 108.2973543 -91.46191783 102.62623173 -91.45458984 96.42431641 C-91.46130707 95.58901398 -91.46802429 94.75371155 -91.47494507 93.89309692 C-91.4937649 91.16434608 -91.4978394 88.4358427 -91.5 85.70703125 C-91.50643319 83.79893902 -91.51316193 81.89084777 -91.52017212 79.98275757 C-91.53210036 76.00036324 -91.53585695 72.01805544 -91.53466797 68.03564453 C-91.53446367 62.92756168 -91.56189942 57.82002827 -91.59621239 52.71207619 C-91.61840473 48.77962678 -91.62250807 44.847312 -91.62144852 40.91480637 C-91.6238109 39.03049174 -91.63267016 37.14617375 -91.64811325 35.26192093 C-91.66764206 32.63596536 -91.66199031 30.01122778 -91.64990234 27.38525391 C-91.66114136 26.60601562 -91.67238037 25.82677734 -91.68395996 25.02392578 C-91.62235286 19.77504535 -91.62235286 19.77504535 -89.28369141 17.31500244 C-86.75787632 16.09711562 -84.87882297 15.85283443 -82.078125 15.73828125 C-80.57523926 15.65682861 -80.57523926 15.65682861 -79.04199219 15.57373047 C-77.43179199 15.49662842 -77.43179199 15.49662842 -75.7890625 15.41796875 C-54.80736508 14.03799299 -33.51895008 9.33738382 -15 -1.015625 C-9.60299566 -3.7409913 -5.31790121 -2.29487704 0 0 Z M-15.2890625 14.41796875 C-34.50943845 24.43981914 -56.93235198 26.91294006 -78.1640625 29.29296875 C-78.21059162 38.11672653 -78.24603558 46.94044147 -78.26768684 55.76429558 C-78.27808317 59.86243934 -78.29216566 63.9604986 -78.31494141 68.05859375 C-78.33681896 72.02028346 -78.34866227 75.98189235 -78.35381699 79.94363785 C-78.35748616 81.44815466 -78.36465044 82.95266751 -78.37552261 84.45714951 C-78.49795098 102.11575172 -75.28931226 116.17605519 -64.1640625 130.29296875 C-63.59171875 131.0303125 -63.019375 131.76765625 -62.4296875 132.52734375 C-50.10801546 147.37653826 -32.3997012 157.24096582 -15.1640625 165.29296875 C-14.308125 165.70804688 -13.4521875 166.123125 -12.5703125 166.55078125 C-5.01041302 168.88256843 4.80995781 161.92111815 11.3984375 158.58544922 C32.81993236 147.2267359 52.018316 130.28528256 59.41186523 106.59643555 C61.43423912 99.0120252 61.21104544 91.46526405 61.12890625 83.6875 C61.12329827 82.11138822 61.11903387 80.53527114 61.11604309 78.95915222 C61.10468875 74.84753514 61.07530493 70.73624528 61.04193115 66.62475586 C61.01102509 62.41459578 60.99749425 58.20438189 60.98242188 53.99414062 C60.95042428 45.76026793 60.89934473 37.52665925 60.8359375 29.29296875 C60.16487473 29.21354538 59.49381195 29.13412201 58.80241394 29.05229187 C55.70234145 28.68270633 52.60314085 28.30623215 49.50390625 27.9296875 C48.44876831 27.80493042 47.39363037 27.68017334 46.30651855 27.55163574 C3.90546499 22.36249624 3.90546499 22.36249624 -6.1640625 12.29296875 C-9.93702768 11.97322594 -12.05562243 12.52085815 -15.2890625 14.41796875 Z " fill="#FAFAFA" transform="translate(132.1640625,35.70703125)"/>
<path d="M0 0 C2 2 2 2 2.45004272 5.74220276 C2.31367473 10.4730384 0.12587388 12.96891267 -3.20068359 16.12475586 C-3.75342453 16.6802713 -4.30616547 17.23578674 -4.87565613 17.80813599 C-6.69810768 19.63011449 -8.54729918 21.42205747 -10.3984375 23.21484375 C-11.67327002 24.47728446 -12.94641044 25.74143598 -14.21792603 27.00721741 C-17.56321491 30.32768438 -20.9322612 33.62301085 -24.30645752 36.9140625 C-27.06253006 39.61003833 -29.80171773 42.32281475 -32.54010582 45.03673458 C-38.18963511 50.63566509 -43.85014827 56.22357933 -49.54052734 61.78100586 C-50.06632889 62.29783432 -50.59213043 62.81466278 -51.13386536 63.34715271 C-53.97471153 66.11181238 -55.71498078 67.77287868 -59.66455078 68.47094727 C-64.63486666 67.76916573 -66.92805908 64.95184712 -70.3671875 61.46484375 C-71.38656906 60.45763023 -71.38656906 60.45763023 -72.42654419 59.43006897 C-73.8575854 58.00748273 -75.28101633 56.57720552 -76.69726562 55.13989258 C-78.86599539 52.94660657 -81.06710728 50.79014645 -83.2734375 48.63476562 C-84.66094942 47.2468832 -86.04643694 45.85697336 -87.4296875 44.46484375 C-88.41858475 43.50190651 -88.41858475 43.50190651 -89.42745972 42.51951599 C-92.58924352 39.25867655 -93.90194812 37.79038647 -94.47705078 33.15454102 C-94 30 -94 30 -92.9375 28.0625 C-89.84095416 26.36439422 -87.47662608 26.64558997 -84 27 C-81.74680525 28.63703505 -80.14297899 30.02968875 -78.28515625 32.03125 C-77.78455185 32.54175903 -77.28394745 33.05226807 -76.76817322 33.57824707 C-75.18234602 35.20307472 -73.62266395 36.85055318 -72.0625 38.5 C-70.98796856 39.60966377 -69.91181182 40.71775615 -68.83398438 41.82421875 C-66.20348963 44.5316467 -63.59616697 47.25965435 -61 50 C-57.30739917 48.45310503 -54.97502183 46.21115919 -52.17138672 43.38256836 C-51.70584381 42.91571121 -51.2403009 42.44885406 -50.76065063 41.96784973 C-49.2290053 40.4297339 -47.70446079 38.88476955 -46.1796875 37.33984375 C-45.11453451 36.26841807 -44.04886321 35.19750743 -42.98269653 34.12709045 C-40.1811687 31.31227654 -37.38526716 28.49194562 -34.59094238 25.66998291 C-30.11246871 21.14833977 -25.62721547 16.63344588 -21.13873672 12.12173653 C-19.57087442 10.54363637 -18.00646017 8.96217609 -16.44235229 7.38035583 C-15.48495792 6.41613541 -14.52745452 5.45202322 -13.56982422 4.48803711 C-12.73361542 3.64357529 -11.89740662 2.79911346 -11.03585815 1.92906189 C-7.26665074 -1.64242189 -4.98285478 -0.97877505 0 0 Z " fill="#F9F9F9" transform="translate(174,94)"/>
</svg>
